<svg id="Logo" xmlns="http://www.w3.org/2000/svg" viewBox="0 0 381.04 306.91"><defs><style>.cls-1{fill:#ff563c;}</style></defs><path class="cls-1" d="M281.21,214a17.34,17.34,0,0,1-13.11.68,16.28,16.28,0,0,1-9.45-8.52l-21.58-46.52c2.59-3.9,5.76-6.93,10.34-8.19,6.9-1.9,13.8,1.92,18.37,5.47,7,5.45,13.24,13.31,19,24,.13.26.27.52.41.78l4.64,10h0c3.83,8.3,0,18.28-8.59,22.26M211.5,193.79c-.5,1.08-1,2.17-1.49,3.25-1.07,2.33-2.17,4.74-3.32,7-2.59,5.13-7.37,11.29-15.41,11.56h-1.52c-8-.27-12.81-6.43-15.41-11.56-1.15-2.27-2.24-4.67-3.3-7-.5-1.1-1-2.19-1.51-3.28l-11.87-25.45-.79-1.7c-4.09-8.85-9.17-19.87-21.07-23.13-5.57-1.53-14.46-1.6-25.29,6.67l21.85-47.1.14-.33a17.3,17.3,0,0,1,1.66-3.37l.07-.11a16.59,16.59,0,0,1,13.92-8h1.33a16.54,16.54,0,0,1,13.85,8l.06.1a17.14,17.14,0,0,1,1.67,3.38l21.69,46.8a4.15,4.15,0,0,0,7.52,0l21.56-46.47.13-.33a17.14,17.14,0,0,1,1.67-3.38l.07-.1a16.59,16.59,0,0,1,13.92-8H233a16.54,16.54,0,0,1,13.85,8l.1.16a19.71,19.71,0,0,1,1.69,3.49l21.92,47.26c-10.83-8.27-19.72-8.2-25.28-6.67-11.9,3.26-17,14.28-21.08,23.13Zm-89.11,12.34a16.25,16.25,0,0,1-9.45,8.52A17.57,17.57,0,0,1,90.86,204.4a16.2,16.2,0,0,1,.39-12.69h0l4.64-10,.41-.76c5.72-10.73,11.92-18.59,19-24,4.56-3.55,11.47-7.36,18.36-5.47,4.59,1.26,7.76,4.29,10.34,8.19Zm174.84-17.9h0c-1.44-3.5-3-6.91-4.71-10.16l-36.32-78.3A25.55,25.55,0,0,0,253.82,95,24.69,24.69,0,0,0,233.28,83.1h-2A24.73,24.73,0,0,0,210.69,95a25.51,25.51,0,0,0-2.36,4.77l-17.81,38.38-17.8-38.38A25.55,25.55,0,0,0,170.35,95,24.69,24.69,0,0,0,149.81,83.1h-2a25.69,25.69,0,0,0-23,16.68L88.54,178.07c-1.69,3.25-3.27,6.66-4.72,10.16h0a24.38,24.38,0,0,0-.62,19.09,25.45,25.45,0,0,0,13.19,14.09,25.75,25.75,0,0,0,10.86,2.42,25.43,25.43,0,0,0,8.42-1.44,24.41,24.41,0,0,0,14.18-12.81l19-40.87.63,1.37,12.68,27.18,1.47,3.21c1.1,2.4,2.23,4.88,3.45,7.29,5.1,10.08,13.11,15.78,22.54,16.06h1.9c9.44-.28,17.44-6,22.54-16.06,1.23-2.42,2.36-4.91,3.46-7.31l1.47-3.19,12.67-27.18c.21-.46.42-.92.64-1.37l19,40.87a24.4,24.4,0,0,0,14.17,12.81,25.47,25.47,0,0,0,19.28-1c12.69-5.88,18.33-20.77,12.57-33.18"/></svg>