<svg id="Layer_1" data-name="Layer 1" xmlns="http://www.w3.org/2000/svg" viewBox="0 0 4870 1383.95"><defs><style>.cls-1{fill:#0052d0;}.cls-2{fill:#0053d0;}.cls-3{fill:#0054d0;}.cls-4{fill:#0154d0;}.cls-5{fill:#0154d1;}.cls-6{fill:#0155d1;}.cls-7{fill:#0156d1;}.cls-8{fill:#0157d1;}.cls-9{fill:#0158d1;}.cls-10{fill:#0258d1;}.cls-11{fill:#0258d2;}.cls-12{fill:#0259d2;}.cls-13{fill:#025ad2;}.cls-14{fill:#025bd2;}.cls-15{fill:#035cd2;}.cls-16{fill:#035dd2;}.cls-17{fill:#035dd3;}.cls-18{fill:#035ed3;}.cls-19{fill:#035fd3;}.cls-20{fill:#0360d3;}.cls-21{fill:#0460d3;}.cls-22{fill:#0461d3;}.cls-23{fill:#0461d4;}.cls-24{fill:#0462d4;}.cls-25{fill:#0463d4;}.cls-26{fill:#0464d4;}.cls-27{fill:#0564d4;}.cls-28{fill:#0565d4;}.cls-29{fill:#0565d5;}.cls-30{fill:#0566d5;}.cls-31{fill:#0567d5;}.cls-32{fill:#0668d5;}.cls-33{fill:#0669d5;}.cls-34{fill:#0669d6;}.cls-35{fill:#066ad6;}.cls-36{fill:#066bd6;}.cls-37{fill:#076cd6;}.cls-38{fill:#076dd6;}.cls-39{fill:#076ed7;}.cls-40{fill:#076fd7;}.cls-41{fill:#086fd7;}.cls-42{fill:#0870d7;}.cls-43{fill:#0871d7;}.cls-44{fill:#0872d7;}.cls-45{fill:#0872d8;}.cls-46{fill:#0873d8;}.cls-47{fill:#0974d8;}.cls-48{fill:#0975d8;}.cls-49{fill:#0976d8;}.cls-50{fill:#0976d9;}.cls-51{fill:#0977d9;}.cls-52{fill:#0a77d9;}.cls-53{fill:#0a78d9;}.cls-54{fill:#0a79d9;}.cls-55{fill:#0a7ad9;}.cls-56{fill:#0a7bda;}.cls-57{fill:#0b7bda;}.cls-58{fill:#0b7cda;}.cls-59{fill:#0b7dda;}.cls-60{fill:#0b7eda;}.cls-61{fill:#0b7fdb;}.cls-62{fill:#0c7fdb;}.cls-63{fill:#0c80db;}.cls-64{fill:#0c81db;}.cls-65{fill:#0c82db;}.cls-66{fill:#0c83db;}.cls-67{fill:#0d83dc;}.cls-68{fill:#0d84dc;}.cls-69{fill:#0d85dc;}.cls-70{fill:#0d86dc;}.cls-71{fill:#0d87dc;}.cls-72{fill:#0e87dd;}.cls-73{fill:#0e88dd;}.cls-74{fill:#0e89dd;}.cls-75{fill:#0e8add;}.cls-76{fill:#0e8bdd;}.cls-77{fill:#0f8bdd;}.cls-78{fill:#0f8cde;}.cls-79{fill:#0f8dde;}.cls-80{fill:#0f8ede;}.cls-81{fill:#0f8fde;}.cls-82{fill:#108fde;}.cls-83{fill:#1090df;}.cls-84{fill:#1091df;}.cls-85{fill:#1092df;}.cls-86{fill:#1093df;}.cls-87{fill:#1193df;}.cls-88{fill:#1194df;}.cls-89{fill:#1194e0;}.cls-90{fill:#1195e0;}.cls-91{fill:#1196e0;}.cls-92{fill:#1297e0;}.cls-93{fill:#1298e0;}.cls-94{fill:#1298e1;}.cls-95{fill:#1299e1;}.cls-96{fill:#129ae1;}.cls-97{fill:#129be1;}.cls-98{fill:#139be1;}.cls-99{fill:#139ce1;}.cls-100{fill:#139de2;}.cls-101{fill:#139ee2;}.cls-102{fill:#149fe2;}.cls-103{fill:#14a0e2;}.cls-104{fill:#14a1e2;}.cls-105{fill:#14a1e3;}.cls-106{fill:#14a2e3;}.cls-107{fill:#15a3e3;}.cls-108{fill:#15a4e3;}.cls-109{fill:#15a5e3;}.cls-110{fill:#15a5e4;}.cls-111{fill:#15a6e4;}.cls-112{fill:#16a6e4;}.cls-113{fill:#16a7e4;}.cls-114{fill:#16a8e4;}.cls-115{fill:#16a9e4;}.cls-116{fill:#16a9e5;}.cls-117{fill:#16aae5;}.cls-118{fill:#17aae5;}.cls-119{fill:#17abe5;}.cls-120{fill:#17ace5;}.cls-121{fill:#17ade5;}.cls-122{fill:#17ade6;}.cls-123{fill:#17aee6;}.cls-124{fill:#18afe6;}.cls-125{fill:#18b0e6;}.cls-126{fill:#18b1e6;}.cls-127{fill:#18b2e6;}.cls-128{fill:#18b2e7;}.cls-129{fill:#19b2e7;}.cls-130{fill:#19b3e7;}.cls-131{fill:#19b4e7;}.cls-132{fill:#19b5e7;}.cls-133{fill:#19b6e7;}.cls-134{fill:#19b6e8;}.cls-135{fill:#1ab6e8;}.cls-136{fill:#1ab7e8;}.cls-137{fill:#1ab8e8;}</style></defs><path class="cls-1" d="M4231.37,105.38c0,1-.07,2-.14,3s-.17,2-.31,3-.28,2-.47,3-.4,2-.65,3-.52,2-.83,3-.65,2-1,3-.79,2.06-1.24,3.06-1,2.08-1.49,3.09-1.14,2.12-1.76,3.14-1.36,2.16-2.1,3.21-1.64,2.23-2.53,3.3-2,2.32-3.08,3.42q-1.86,1.89-3.9,3.6a54.18,54.18,0,0,1-5.31,3.91,55.16,55.16,0,0,1-9,4.69c-.68.28-1.38.55-2.08.8a54.32,54.32,0,0,1-37.74-.26,54.6,54.6,0,0,1-10.65-5.42q-2.16-1.41-4.18-3c-1.26-1-2.47-2.07-3.64-3.2s-2.17-2.16-3.18-3.32-1.91-2.25-2.79-3.44-1.66-2.32-2.43-3.54-1.44-2.39-2.09-3.64c-.34-.64-.67-1.3-1-2l1.82-.54,4.72-1.4,7.26-2.15,13.26-3.93,29.38-8.71,14.37-4.26,8.7-2.57,6.43-1.91,5-1.49,4-1.18,3.13-.92,2.39-.71,1.69-.5,1-.29A54.53,54.53,0,0,1,4231.37,105.38Z"/><path class="cls-1" d="M4231.72,111.42c0,1,0,2-.08,3s-.14,2-.25,3-.24,2-.41,3-.36,2-.58,3-.48,2-.76,3-.61,2-1,3-.74,2-1.16,3-.9,2.07-1.4,3.08-1.07,2.11-1.67,3.14-1.29,2.16-2,3.21-1.56,2.23-2.4,3.3-1.9,2.33-2.93,3.43c-1.17,1.27-2.41,2.47-3.7,3.63a54.92,54.92,0,0,1-13.1,8.6c-1.18.55-2.39,1.06-3.63,1.54a54.12,54.12,0,0,1-20.87,3.58,53.33,53.33,0,0,1-10.27-1.27,52.55,52.55,0,0,1-7.1-2.08,56.58,56.58,0,0,1-5.71-2.48,51.92,51.92,0,0,1-4.81-2.75q-2.16-1.37-4.18-2.94c-1.25-1-2.47-2-3.64-3.12s-2.19-2.11-3.21-3.25-1.92-2.2-2.82-3.37-1.68-2.29-2.46-3.49-1.47-2.35-2.14-3.58-1.26-2.42-1.82-3.67c-.44-1-.86-2-1.25-3l-.28-.75c-.2-.55-.39-1.11-.57-1.66l.93-.28,1.27-.38,1.82-.54,4.72-1.4,7.26-2.15,13.26-3.93,29.38-8.71,14.37-4.26,8.7-2.57,6.43-1.91,5-1.49,4-1.18,3.13-.92,2.39-.71,1.69-.5a55.48,55.48,0,0,1,1.47,7.76A58.56,58.56,0,0,1,4231.72,111.42Z"/><path class="cls-2" d="M4232.14,120.34q0,1.48-.18,3c-.09,1-.2,2-.35,3s-.31,2-.52,3-.43,2-.69,3-.55,2-.87,3-.7,2-1.09,3-.84,2.07-1.31,3.08-1,2.11-1.58,3.14-1.22,2.16-1.88,3.21-1.48,2.23-2.28,3.31-1.8,2.33-2.78,3.44c-1.1,1.26-2.28,2.48-3.51,3.64a54.2,54.2,0,0,1-4.69,4,55.7,55.7,0,0,1-7.38,4.65c-1.6.83-3.25,1.6-5,2.29a54.21,54.21,0,0,1-31.8,2.72,53.42,53.42,0,0,1-6.91-2,54.55,54.55,0,0,1-5.63-2.38,51.9,51.9,0,0,1-4.78-2.66c-1.43-.88-2.82-1.84-4.17-2.86s-2.48-2-3.65-3-2.2-2.07-3.23-3.18-1.94-2.16-2.85-3.31-1.7-2.24-2.5-3.43-1.49-2.32-2.18-3.53-1.29-2.38-1.87-3.62c-.44-.94-.86-1.91-1.26-2.88-.1-.28-.21-.55-.32-.83-.48-1.24-.91-2.5-1.29-3.76s-.73-2.56-1-3.84c-.11-.5-.21-1-.31-1.49l.4-.12.87-.25.93-.28,1.27-.38,1.82-.54,4.72-1.4,7.26-2.15,13.26-3.93,29.38-8.71,14.37-4.26,8.7-2.57,6.43-1.91,5-1.49,4-1.18,3.13-.92,2.39-.71a.06.06,0,0,0,0,0,54.49,54.49,0,0,1,3,10.26c.19,1,.35,2,.49,3a54.48,54.48,0,0,1,.44,6h0C4232.19,118.37,4232.18,119.35,4232.14,120.34Z"/><path class="cls-2" d="M4232.76,126.21c0,1-.06,2-.13,2.94s-.16,2-.29,2.94-.27,2-.45,3-.38,2-.62,3-.51,2-.8,3-.65,2-1,3-.78,2.06-1.23,3.07-.95,2.11-1.48,3.13-1.14,2.17-1.78,3.21-1.39,2.24-2.15,3.31-1.71,2.34-2.63,3.45c-1,1.27-2.16,2.48-3.33,3.65a50.62,50.62,0,0,1-4.42,4,52.27,52.27,0,0,1-6.75,4.63,53,53,0,0,1-6.12,3.07,54.27,54.27,0,0,1-23.26,4.29,54.77,54.77,0,0,1-15.91-3,53.46,53.46,0,0,1-5.55-2.28,51.86,51.86,0,0,1-4.75-2.57c-1.43-.86-2.81-1.79-4.16-2.78s-2.48-1.92-3.66-3-2.21-2-3.25-3.11-2-2.12-2.88-3.25-1.73-2.21-2.53-3.37-1.52-2.28-2.22-3.48-1.33-2.35-1.92-3.57c-.45-.91-.87-1.84-1.27-2.78-.13-.29-.25-.59-.37-.88-.5-1.24-.95-2.48-1.35-3.73s-.76-2.52-1.07-3.78-.58-2.57-.8-3.86q-.45-2.7-.63-5.39l.31-.09.4-.12.87-.25.93-.28,1.27-.38,1.82-.54,4.72-1.4,7.26-2.15,13.26-3.93,29.38-8.71,14.37-4.26,8.7-2.57,6.43-1.91,5-1.49,4-1.18,3.13-.92a53.69,53.69,0,0,1,2.61,5.33,55.11,55.11,0,0,1,2.49,7.26q.4,1.48.72,3c.2,1,.38,2,.52,3h0a53.14,53.14,0,0,1,.56,5.88C4232.76,124.26,4232.77,125.23,4232.76,126.21Z"/><path class="cls-2" d="M4233.46,132q0,1.46-.06,2.91c0,1-.12,1.95-.23,2.92s-.23,2-.38,2.93-.34,2-.55,2.95-.47,2-.74,3-.58,2-.92,3-.73,2.06-1.14,3.07-.89,2.09-1.39,3.12-1.08,2.16-1.67,3.21-1.32,2.23-2,3.31-1.62,2.33-2.5,3.45-2,2.48-3.14,3.66a53.59,53.59,0,0,1-10.36,8.59,55.73,55.73,0,0,1-7.16,3.86,54.36,54.36,0,0,1-33,3.63,55.94,55.94,0,0,1-6.6-1.79,55.62,55.62,0,0,1-10.21-4.66q-2.13-1.26-4.15-2.7c-1.26-.91-2.49-1.87-3.67-2.89s-2.22-2-3.27-3-2-2.08-2.9-3.18-1.76-2.17-2.58-3.31-1.55-2.25-2.26-3.43-1.36-2.32-2-3.53c-.45-.87-.88-1.75-1.28-2.66-.14-.31-.28-.63-.41-.95q-.78-1.83-1.41-3.69c-.43-1.24-.8-2.49-1.13-3.75s-.62-2.55-.86-3.83a53.22,53.22,0,0,1-.88-7.8c-.05-1.34-.05-2.67,0-4,0-.54.05-1.07.09-1.61l.87-.25.93-.28,1.27-.38,1.82-.54,4.72-1.4,7.26-2.15,13.26-3.93,29.38-8.71,14.37-4.26,8.7-2.57,6.43-1.91,5-1.49,4-1.18a54.93,54.93,0,0,1,6.05,10.35q1,2.15,1.71,4.33c.35,1,.66,2,.94,3s.53,2,.75,2.94.42,2,.58,2.93a55.51,55.51,0,0,1,.66,5.84C4233.43,130.08,4233.46,131.05,4233.46,132Z"/><path class="cls-3" d="M4234.27,140.63c0,1-.09,1.94-.17,2.9s-.18,1.94-.32,2.91-.29,1.95-.48,2.92-.41,2-.66,3-.54,2-.85,3-.67,2-1.05,3.05-.83,2.09-1.29,3.11-1,2.15-1.57,3.2-1.24,2.23-1.92,3.31-1.52,2.33-2.36,3.45-1.91,2.48-3,3.67a52.36,52.36,0,0,1-3.9,4,54.59,54.59,0,0,1-13.81,9.25,54.14,54.14,0,0,1-25.14,5.1,53.24,53.24,0,0,1-8.38-1,55.41,55.41,0,0,1-6.47-1.69,53.22,53.22,0,0,1-5.42-2.1c-1.6-.71-3.16-1.51-4.69-2.38s-2.8-1.69-4.15-2.62-2.49-1.82-3.68-2.81-2.23-1.93-3.29-3-2-2-2.93-3.11-1.78-2.13-2.61-3.25-1.58-2.21-2.31-3.37-1.39-2.29-2-3.48c-.45-.84-.88-1.69-1.29-2.56l-.45-1q-.81-1.81-1.47-3.66c-.45-1.23-.84-2.47-1.19-3.71s-.66-2.51-.92-3.78h0a54.35,54.35,0,0,1-1-7.78c-.08-1.32-.1-2.63-.08-3.94s.09-2.68.21-4,.29-2.7.51-4c.11-.65.23-1.3.36-1.94l1.27-.38,1.82-.54,4.72-1.4,7.26-2.15,13.26-3.93,29.38-8.71,14.37-4.26,8.7-2.57,6.43-1.91,5-1.49a54.45,54.45,0,0,1,10.43,15c.23.49.44,1,.65,1.46.43,1,.82,2,1.18,3s.69,1.94,1,2.92.56,1.93.8,2.9.44,1.93.62,2.9a53.71,53.71,0,0,1,.75,5.76c.08,1,.12,1.91.15,2.87S4234.3,139.67,4234.27,140.63Z"/><path class="cls-4" d="M4235.23,146.27c0,1,0,1.92-.1,2.87s-.14,1.92-.25,2.88-.26,1.94-.42,2.91-.37,2-.59,2.94-.48,2-.77,3-.61,2-1,3-.76,2.08-1.2,3.1-.94,2.14-1.47,3.19-1.15,2.22-1.8,3.3-1.43,2.34-2.21,3.46-1.8,2.48-2.79,3.66a53.16,53.16,0,0,1-3.67,4,54.2,54.2,0,0,1-5.31,4.58,55.06,55.06,0,0,1-8.89,5.48c-1.07.52-2.16,1-3.24,1.46a54.28,54.28,0,0,1-22.71,4.08,54.32,54.32,0,0,1-8.06-.9,53.11,53.11,0,0,1-6.35-1.59,52.3,52.3,0,0,1-5.35-2,49.44,49.44,0,0,1-4.68-2.3q-2.11-1.17-4.13-2.53t-3.7-2.73q-1.71-1.38-3.31-2.91t-3-3.05c-.92-1-1.81-2.09-2.66-3.19h0c-.81-1.07-1.6-2.17-2.34-3.31s-1.42-2.25-2.07-3.43c-.45-.8-.88-1.63-1.29-2.46l-.51-1.06c-.55-1.19-1.06-2.4-1.52-3.61s-.88-2.45-1.25-3.69-.71-2.49-1-3.75a51.92,51.92,0,0,1-1.15-7.69h0c-.1-1.32-.16-2.63-.16-3.95s0-2.67.13-4,.24-2.69.43-4,.45-2.71.75-4,.67-2.75,1.08-4.1c.26-.84.54-1.68.84-2.51l4.72-1.4,7.26-2.15,13.26-3.93,29.38-8.71,14.37-4.26,8.7-2.57,6.43-1.91a54,54,0,0,1,15.26,18c.23.44.46.88.68,1.34s.51,1,.75,1.58c.43,1,.84,1.92,1.21,2.89s.71,1.92,1,2.88.58,1.91.83,2.87.48,1.89.67,2.85a52.82,52.82,0,0,1,.86,5.69c.09.95.16,1.9.2,2.85S4235.25,145.32,4235.23,146.27Z"/><path class="cls-5" d="M4236.3,151.83c0,.94,0,1.89-.05,2.83s-.1,1.92-.19,2.86-.21,1.93-.35,2.89-.31,2-.51,2.92-.44,2-.7,3-.56,2-.88,3-.71,2.07-1.11,3.09-.88,2.13-1.37,3.18-1.08,2.21-1.68,3.29-1.35,2.33-2.08,3.46-1.7,2.47-2.63,3.66a51.74,51.74,0,0,1-3.44,4,53.43,53.43,0,0,1-4.92,4.57,54.52,54.52,0,0,1-9.62,6.31l-.12.06a54.24,54.24,0,0,1-26.55,6,53.32,53.32,0,0,1-7.79-.83,52.77,52.77,0,0,1-6.23-1.49,56.07,56.07,0,0,1-5.31-1.92c-1.58-.66-3.13-1.39-4.65-2.21s-2.79-1.57-4.13-2.45-2.51-1.72-3.71-2.66-2.25-1.84-3.33-2.83-2-1.95-3-3-1.83-2.05-2.69-3.13-1.63-2.14-2.4-3.26-1.45-2.21-2.11-3.37c-.45-.77-.88-1.56-1.3-2.37l-.55-1.1c-.57-1.18-1.1-2.37-1.58-3.56s-.93-2.43-1.32-3.66-.75-2.47-1.05-3.72a52.91,52.91,0,0,1-1.29-7.65c-.13-1.3-.21-2.61-.23-3.91s0-2.66.05-4,.18-2.68.35-4,.39-2.71.66-4.05.61-2.74,1-4.09.85-2.78,1.35-4.13a54.19,54.19,0,0,1,3.47-7.55l7.26-2.15,13.26-3.93,29.38-8.71,14.37-4.26,8.7-2.57a54,54,0,0,1,20.66,19.15c.59,1,1.16,1.91,1.7,2.9.21.39.42.78.62,1.17.29.56.57,1.13.83,1.69.45.95.87,1.9,1.25,2.85s.74,1.89,1.06,2.84.61,1.87.88,2.81.5,1.88.71,2.82a54.91,54.91,0,0,1,1,5.64c.1.93.19,1.87.24,2.8S4236.29,150.89,4236.3,151.83Z"/><path class="cls-6" d="M4237.47,160.12c0,.94-.06,1.89-.13,2.83s-.16,1.91-.28,2.86-.27,1.94-.44,2.9-.39,2-.62,2.94-.51,2-.8,3-.65,2.07-1,3.08-.82,2.13-1.27,3.17-1,2.21-1.57,3.29-1.26,2.32-1.95,3.45-1.59,2.47-2.46,3.66c-1,1.37-2.09,2.71-3.23,4a52.94,52.94,0,0,1-4.57,4.54,53.56,53.56,0,0,1-8.37,6.09c-.62.37-1.25.72-1.89,1.07a54.36,54.36,0,0,1-34.88,5.76,53.2,53.2,0,0,1-6.12-1.41,51.71,51.71,0,0,1-5.25-1.82q-2.37-.94-4.64-2.12c-1.41-.73-2.78-1.52-4.13-2.38s-2.51-1.66-3.72-2.58-2.27-1.79-3.35-2.76-2.05-1.91-3-2.92-1.86-2-2.73-3.07-1.66-2.09-2.44-3.2-1.48-2.18-2.16-3.32c-.45-.75-.88-1.5-1.3-2.27l-.6-1.15c-.59-1.17-1.14-2.34-1.64-3.53s-1-2.4-1.38-3.61-.79-2.44-1.11-3.67a52.83,52.83,0,0,1-1.44-7.61q-.22-1.95-.3-3.9c-.06-1.32-.07-2.63,0-3.95s.13-2.67.27-4,.33-2.7.58-4,.54-2.74.89-4.09.79-2.77,1.26-4.13,1-2.8,1.64-4.17a54,54,0,0,1,8.3-13.24l13.26-3.93,29.38-8.71,14.37-4.26a54.25,54.25,0,0,1,28.12,19.64c.69.93,1.35,1.88,2,2.86s1.18,1.87,1.72,2.83c.19.34.38.67.56,1,.32.6.63,1.2.93,1.81.46.92.89,1.86,1.28,2.8s.76,1.85,1.1,2.78.64,1.85.92,2.78.53,1.86.76,2.79a56,56,0,0,1,1,5.53c.13.92.23,1.84.3,2.77s.14,1.87.17,2.81S4237.49,159.19,4237.47,160.12Z"/><path class="cls-6" d="M4238.79,165.5c0,.94,0,1.87-.07,2.8s-.12,1.89-.22,2.83-.22,1.92-.37,2.88-.34,2-.54,2.92-.46,2-.73,3-.59,2-.92,3.06-.75,2.12-1.18,3.16-.93,2.2-1.45,3.28-1.17,2.31-1.82,3.43-1.49,2.47-2.31,3.66q-1.41,2.06-3,4h0a53.24,53.24,0,0,1-4.24,4.53,53.87,53.87,0,0,1-7.38,5.89c-1.12.75-2.26,1.45-3.45,2.12a54.12,54.12,0,0,1-35.26,6.35,53.8,53.8,0,0,1-6-1.31,52.12,52.12,0,0,1-5.21-1.73,48.54,48.54,0,0,1-4.61-2q-2.11-1-4.14-2.29c-1.27-.78-2.51-1.62-3.73-2.5s-2.28-1.75-3.37-2.69-2.07-1.86-3.06-2.86-1.87-2-2.76-3-1.69-2.05-2.48-3.14-1.51-2.14-2.21-3.26c-.45-.72-.88-1.44-1.3-2.18-.22-.4-.44-.8-.65-1.2-.62-1.15-1.18-2.3-1.7-3.47s-1-2.37-1.43-3.56-.84-2.43-1.19-3.66a54.45,54.45,0,0,1-1.57-7.53c-.18-1.29-.3-2.59-.39-3.89s-.11-2.62-.1-3.93.08-2.66.19-4,.27-2.71.49-4,.48-2.73.81-4.08.71-2.77,1.15-4.13,1-2.8,1.54-4.17,1.25-2.84,2-4.22a54,54,0,0,1,18.77-20.61l29.38-8.71a54.54,54.54,0,0,1,41,18.47q1.2,1.37,2.31,2.82c.7.9,1.36,1.83,2,2.79s1.18,1.83,1.74,2.77l.48.85c.36.63.71,1.27,1,1.92.47.91.9,1.82,1.31,2.75s.79,1.82,1.13,2.74.67,1.82,1,2.73.56,1.82.8,2.73a52.87,52.87,0,0,1,1.15,5.48c.14.91.26,1.82.35,2.74s.17,1.85.22,2.77S4238.79,164.58,4238.79,165.5Z"/><circle class="cls-6" cx="4185.77" cy="172.07" r="54.43"/><circle class="cls-7" cx="4187.3" cy="178.47" r="54.43"/><circle class="cls-7" cx="4188.95" cy="184.8" r="54.43"/><circle class="cls-7" cx="4190.72" cy="191.05" r="54.43"/><circle class="cls-8" cx="4192.6" cy="197.22" r="54.43"/><circle class="cls-8" cx="4194.6" cy="203.31" r="54.43"/><circle class="cls-8" cx="4196.71" cy="209.32" r="54.43"/><circle class="cls-9" cx="4198.94" cy="215.25" r="54.43"/><circle class="cls-10" cx="4201.27" cy="221.09" r="54.43"/><circle class="cls-11" cx="4203.72" cy="226.85" r="54.43"/><circle class="cls-12" cx="4206.28" cy="232.51" r="54.43"/><circle class="cls-12" cx="4208.95" cy="238.09" r="54.43"/><circle class="cls-12" cx="4211.73" cy="243.57" r="54.43"/><circle class="cls-13" cx="4214.62" cy="248.95" r="54.43"/><circle class="cls-13" cx="4217.62" cy="254.24" r="54.43"/><circle class="cls-13" cx="4220.73" cy="259.42" r="54.43"/><circle class="cls-14" cx="4223.95" cy="264.5" r="54.43"/><circle class="cls-14" cx="4227.27" cy="269.48" r="54.43"/><circle class="cls-14" cx="4230.7" cy="274.35" r="54.43"/><circle class="cls-15" cx="4234.24" cy="279.12" r="54.43"/><circle class="cls-15" cx="4237.88" cy="283.77" r="54.43"/><circle class="cls-16" cx="4241.63" cy="288.31" r="54.43"/><circle class="cls-17" cx="4245.48" cy="292.74" r="54.43"/><circle class="cls-17" cx="4249.43" cy="297.04" r="54.43"/><circle class="cls-18" cx="4253.49" cy="301.23" r="54.43"/><circle class="cls-18" cx="4257.65" cy="305.3" r="54.43"/><circle class="cls-18" cx="4261.91" cy="309.25" r="54.43"/><circle class="cls-19" cx="4266.27" cy="313.07" r="54.43"/><circle class="cls-19" cx="4270.74" cy="316.76" r="54.43"/><circle class="cls-19" cx="4275.3" cy="320.32" r="54.43"/><circle class="cls-20" cx="4279.97" cy="323.76" r="54.43"/><circle class="cls-21" cx="4284.73" cy="327.06" r="54.43"/><circle class="cls-21" cx="4289.59" cy="330.22" r="54.43"/><circle class="cls-22" cx="4294.55" cy="333.24" r="54.43"/><circle class="cls-23" cx="4299.61" cy="336.13" r="54.43"/><circle class="cls-23" cx="4304.76" cy="338.88" r="54.43"/><circle class="cls-24" cx="4310.01" cy="341.48" r="54.43"/><circle class="cls-24" cx="4315.35" cy="343.93" r="54.43"/><circle class="cls-24" cx="4320.79" cy="346.24" r="54.43"/><circle class="cls-25" cx="4326.32" cy="348.39" r="54.43"/><circle class="cls-25" cx="4331.95" cy="350.4" r="54.43"/><circle class="cls-25" cx="4337.67" cy="352.25" r="54.43"/><circle class="cls-26" cx="4343.48" cy="353.94" r="54.43"/><circle class="cls-27" cx="4349.39" cy="355.48" r="54.43"/><circle class="cls-27" cx="4355.38" cy="356.85" r="54.43"/><circle class="cls-28" cx="4361.47" cy="358.06" r="54.43"/><circle class="cls-28" cx="4367.64" cy="359.11" r="54.43"/><circle class="cls-29" cx="4373.91" cy="359.99" r="54.43"/><circle class="cls-30" cx="4380.26" cy="360.7" r="54.43"/><circle class="cls-30" cx="4386.71" cy="361.24" r="54.43"/><circle class="cls-30" cx="4393.24" cy="361.61" r="54.43"/><circle class="cls-31" cx="4399.86" cy="361.81" r="54.43"/><circle class="cls-31" cx="4406.56" cy="361.82" r="54.43"/><circle class="cls-31" cx="4413.28" cy="361.66" r="54.43"/><circle class="cls-32" cx="4419.86" cy="361.32" r="54.43"/><circle class="cls-32" cx="4426.46" cy="360.8" r="54.43"/><circle class="cls-32" cx="4433.08" cy="360.09" r="54.43"/><circle class="cls-33" cx="4439.73" cy="359.21" r="54.43"/><circle class="cls-33" cx="4446.39" cy="358.15" r="54.43"/><circle class="cls-34" cx="4453.06" cy="356.93" r="54.43"/><circle class="cls-35" cx="4459.73" cy="355.54" r="54.43"/><circle class="cls-35" cx="4466.4" cy="353.98" r="54.43"/><circle class="cls-35" cx="4473.06" cy="352.27" r="54.43"/><circle class="cls-36" cx="4479.72" cy="350.4" r="54.43"/><circle class="cls-36" cx="4486.35" cy="348.39" r="54.43"/><circle class="cls-36" cx="4492.97" cy="346.22" r="54.43"/><circle class="cls-37" cx="4499.55" cy="343.91" r="54.43"/><circle class="cls-37" cx="4506.11" cy="341.45" r="54.43"/><circle class="cls-37" cx="4512.63" cy="338.86" r="54.43"/><circle class="cls-38" cx="4519.1" cy="336.14" r="54.43"/><circle class="cls-38" cx="4525.53" cy="333.28" r="54.43"/><circle class="cls-38" cx="4531.9" cy="330.3" r="54.43"/><circle class="cls-39" cx="4538.22" cy="327.2" r="54.43"/><circle class="cls-39" cx="4544.47" cy="323.98" r="54.43"/><circle class="cls-39" cx="4550.66" cy="320.64" r="54.43"/><circle class="cls-40" cx="4556.77" cy="317.19" r="54.43"/><circle class="cls-40" cx="4562.81" cy="313.63" r="54.43"/><circle class="cls-41" cx="4568.76" cy="309.96" r="54.43"/><circle class="cls-42" cx="4574.62" cy="306.2" r="54.43"/><circle class="cls-42" cx="4580.39" cy="302.34" r="54.43"/><circle class="cls-42" cx="4586.06" cy="298.38" r="54.43"/><circle class="cls-43" cx="4591.63" cy="294.33" r="54.43"/><circle class="cls-43" cx="4597.08" cy="290.19" r="54.43"/><circle class="cls-44" cx="4602.42" cy="285.98" r="54.43"/><circle class="cls-44" cx="4607.65" cy="281.68" r="54.43"/><circle class="cls-45" cx="4612.75" cy="277.3" r="54.43"/><circle class="cls-46" cx="4617.71" cy="272.86" r="54.43"/><circle class="cls-46" cx="4622.55" cy="268.34" r="54.43"/><circle class="cls-46" cx="4627.24" cy="263.76" r="54.43"/><circle class="cls-47" cx="4631.79" cy="259.11" r="54.43"/><circle class="cls-47" cx="4636.19" cy="254.41" r="54.43"/><circle class="cls-47" cx="4640.43" cy="249.66" r="54.43"/><circle class="cls-48" cx="4644.52" cy="244.85" r="54.43"/><circle class="cls-48" cx="4648.43" cy="240" r="54.43"/><circle class="cls-48" cx="4652.18" cy="235.1" r="54.43"/><circle class="cls-49" cx="4655.75" cy="230.16" r="54.43"/><circle class="cls-49" cx="4659.14" cy="225.18" r="54.43"/><circle class="cls-50" cx="4662.35" cy="220.18" r="54.43"/><circle class="cls-51" cx="4665.36" cy="215.14" r="54.43"/><circle class="cls-51" cx="4668.18" cy="210.07" r="54.43"/><circle class="cls-52" cx="4670.79" cy="204.99" r="54.43"/><circle class="cls-53" cx="4673.2" cy="199.88" r="54.43"/><circle class="cls-53" cx="4675.39" cy="194.76" r="54.43"/><circle class="cls-53" cx="4677.37" cy="189.63" r="54.43"/><circle class="cls-54" cx="4679.13" cy="184.49" r="54.43"/><circle class="cls-54" cx="4680.66" cy="179.35" r="54.43"/><circle class="cls-54" cx="4681.96" cy="174.21" r="54.43"/><circle class="cls-55" cx="4683.02" cy="169.07" r="54.43"/><circle class="cls-55" cx="4683.84" cy="163.93" r="54.43"/><circle class="cls-55" cx="4684.41" cy="158.81" r="54.43"/><circle class="cls-56" cx="4684.73" cy="153.7" r="54.43"/><circle class="cls-56" cx="4684.79" cy="148.61" r="54.43"/><circle class="cls-57" cx="4684.58" cy="143.53" r="54.43"/><circle class="cls-58" cx="4684.11" cy="138.49" r="54.43"/><circle class="cls-58" cx="4683.37" cy="133.47" r="54.43"/><circle class="cls-58" cx="4682.34" cy="128.48" r="54.43"/><circle class="cls-59" cx="4681.03" cy="123.53" r="54.43"/><circle class="cls-59" cx="4679.44" cy="118.61" r="54.43"/><circle class="cls-59" cx="4677.55" cy="113.74" r="54.43"/><circle class="cls-60" cx="4675.36" cy="108.92" r="54.43"/><circle class="cls-60" cx="4672.87" cy="104.14" r="54.43"/><circle class="cls-60" cx="4670.07" cy="99.42" r="54.43"/><circle class="cls-61" cx="4666.95" cy="94.75" r="54.43"/><circle class="cls-61" cx="4663.51" cy="90.15" r="54.43"/><circle class="cls-62" cx="4659.75" cy="85.61" r="54.43"/><circle class="cls-63" cx="4655.66" cy="81.14" r="54.43"/><circle class="cls-63" cx="4651.36" cy="76.85" r="54.43"/><circle class="cls-63" cx="4647.83" cy="73.71" r="54.43"/><circle class="cls-64" cx="4644.16" cy="70.82" r="54.43"/><circle class="cls-64" cx="4640.36" cy="68.17" r="54.43"/><circle class="cls-64" cx="4636.41" cy="65.76" r="54.43"/><circle class="cls-65" cx="4632.35" cy="63.6" r="54.43"/><circle class="cls-65" cx="4628.15" cy="61.67" r="54.43"/><circle class="cls-65" cx="4623.85" cy="59.98" r="54.43"/><circle class="cls-66" cx="4619.43" cy="58.51" r="54.43"/><circle class="cls-67" cx="4614.91" cy="57.28" r="54.43"/><circle class="cls-67" cx="4610.29" cy="56.27" r="54.43"/><circle class="cls-68" cx="4605.58" cy="55.49" r="54.43"/><circle class="cls-68" cx="4600.78" cy="54.92" r="54.43"/><circle class="cls-68" cx="4595.91" cy="54.58" r="54.43"/><circle class="cls-69" cx="4590.96" cy="54.45" r="54.43"/><circle class="cls-69" cx="4585.94" cy="54.53" r="54.43"/><circle class="cls-70" cx="4580.86" cy="54.82" r="54.43"/><circle class="cls-70" cx="4575.72" cy="55.32" r="54.43"/><circle class="cls-70" cx="4570.54" cy="56.03" r="54.43"/><circle class="cls-71" cx="4565.3" cy="56.93" r="54.43"/><circle class="cls-71" cx="4560.03" cy="58.04" r="54.43"/><circle class="cls-72" cx="4554.73" cy="59.34" r="54.43"/><circle class="cls-73" cx="4549.4" cy="60.83" r="54.43"/><circle class="cls-73" cx="4544.06" cy="62.52" r="54.43"/><circle class="cls-73" cx="4538.69" cy="64.39" r="54.43"/><circle class="cls-74" cx="4533.32" cy="66.45" r="54.43"/><circle class="cls-74" cx="4527.95" cy="68.69" r="54.43"/><circle class="cls-74" cx="4522.57" cy="71.11" r="54.43"/><circle class="cls-75" cx="4517.21" cy="73.71" r="54.43"/><circle class="cls-75" cx="4511.87" cy="76.49" r="54.43"/><circle class="cls-75" cx="4506.54" cy="79.43" r="54.43"/><circle class="cls-76" cx="4501.24" cy="82.55" r="54.43"/><circle class="cls-77" cx="4495.98" cy="85.83" r="54.43"/><circle class="cls-77" cx="4490.75" cy="89.28" r="54.43"/><circle class="cls-78" cx="4485.57" cy="92.88" r="54.43"/><circle class="cls-78" cx="4480.44" cy="96.65" r="54.43"/><circle class="cls-78" cx="4475.37" cy="100.57" r="54.43"/><circle class="cls-79" cx="4470.35" cy="104.64" r="54.43"/><circle class="cls-79" cx="4465.41" cy="108.87" r="54.43"/><circle class="cls-79" cx="4460.55" cy="113.24" r="54.43"/><circle class="cls-80" cx="4455.76" cy="117.76" r="54.43"/><circle class="cls-80" cx="4451.06" cy="122.42" r="54.43"/><circle class="cls-80" cx="4446.45" cy="127.21" r="54.43"/><circle class="cls-81" cx="4441.95" cy="132.15" r="54.43"/><circle class="cls-82" cx="4437.54" cy="137.22" r="54.43"/><circle class="cls-82" cx="4433.25" cy="142.42" r="54.43"/><circle class="cls-83" cx="4429.07" cy="147.75" r="54.43"/><circle class="cls-83" cx="4425.02" cy="153.2" r="54.43"/><circle class="cls-83" cx="4421.09" cy="158.78" r="54.43"/><circle class="cls-84" cx="4417.3" cy="164.48" r="54.43"/><circle class="cls-84" cx="4413.65" cy="170.29" r="54.43"/><circle class="cls-84" cx="4410.14" cy="176.22" r="54.43"/><circle class="cls-85" cx="4406.79" cy="182.27" r="54.43"/><circle class="cls-85" cx="4403.6" cy="188.42" r="54.43"/><circle class="cls-85" cx="4400.57" cy="194.68" r="54.43"/><circle class="cls-86" cx="4397.71" cy="201.05" r="54.43"/><circle class="cls-87" cx="4395.02" cy="207.51" r="54.43"/><circle class="cls-87" cx="4392.52" cy="214.07" r="54.43"/><circle class="cls-88" cx="4390.2" cy="220.74" r="54.43"/><circle class="cls-89" cx="4388.08" cy="227.49" r="54.43"/><circle class="cls-89" cx="4386.16" cy="234.33" r="54.43"/><circle class="cls-90" cx="4384.45" cy="241.27" r="54.43"/><circle class="cls-90" cx="4382.94" cy="248.28" r="54.43"/><circle class="cls-90" cx="4381.66" cy="255.38" r="54.43"/><circle class="cls-91" cx="4380.59" cy="262.56" r="54.43"/><circle class="cls-91" cx="4379.76" cy="269.82" r="54.43"/><circle class="cls-91" cx="4379.16" cy="277.15" r="54.43"/><circle class="cls-92" cx="4378.81" cy="284.55" r="54.43"/><circle class="cls-92" cx="4378.7" cy="292.03" r="54.43"/><circle class="cls-92" cx="4378.84" cy="299.56" r="54.43"/><circle class="cls-93" cx="4379.25" cy="307.16" r="54.43"/><circle class="cls-94" cx="4379.92" cy="314.83" r="54.43"/><circle class="cls-94" cx="4380.86" cy="322.55" r="54.43"/><circle class="cls-95" cx="4382.08" cy="330.32" r="54.43"/><circle class="cls-95" cx="4383.35" cy="337.05" r="54.43"/><circle class="cls-96" cx="4384.4" cy="341.66" r="54.43"/><circle class="cls-96" cx="4385.59" cy="346.23" r="54.43"/><circle class="cls-96" cx="4386.94" cy="350.75" r="54.43"/><circle class="cls-97" cx="4388.43" cy="355.23" r="54.43"/><circle class="cls-98" cx="4390.06" cy="359.66" r="54.43"/><circle class="cls-98" cx="4391.84" cy="364.04" r="54.43"/><circle class="cls-99" cx="4393.76" cy="368.37" r="54.43"/><circle class="cls-99" cx="4395.81" cy="372.65" r="54.43"/><circle class="cls-99" cx="4398.01" cy="376.87" r="54.43"/><circle class="cls-100" cx="4400.33" cy="381.03" r="54.43"/><circle class="cls-100" cx="4402.79" cy="385.14" r="54.43"/><circle class="cls-100" cx="4405.39" cy="389.19" r="54.43"/><circle class="cls-101" cx="4408.11" cy="393.18" r="54.43"/><circle class="cls-101" cx="4410.95" cy="397.1" r="54.43"/><circle class="cls-101" cx="4413.93" cy="400.96" r="54.43"/><circle class="cls-102" cx="4417.02" cy="404.76" r="54.43"/><circle class="cls-102" cx="4420.24" cy="408.48" r="54.43"/><circle class="cls-102" cx="4423.58" cy="412.14" r="54.43"/><circle class="cls-103" cx="4427.03" cy="415.73" r="54.43"/><circle class="cls-103" cx="4430.6" cy="419.24" r="54.43"/><circle class="cls-103" cx="4434.28" cy="422.68" r="54.43"/><circle class="cls-104" cx="4438.08" cy="426.04" r="54.43"/><circle class="cls-105" cx="4441.98" cy="429.33" r="54.43"/><circle class="cls-105" cx="4445.99" cy="432.53" r="54.43"/><circle class="cls-106" cx="4450.11" cy="435.65" r="54.43"/><circle class="cls-106" cx="4454.33" cy="438.7" r="54.43"/><circle class="cls-106" cx="4458.65" cy="441.65" r="54.43"/><circle class="cls-107" cx="4463.08" cy="444.52" r="54.43"/><circle class="cls-107" cx="4467.6" cy="447.31" r="54.43"/><circle class="cls-107" cx="4472.21" cy="450" r="54.43"/><circle class="cls-108" cx="4476.92" cy="452.6" r="54.43"/><circle class="cls-108" cx="4481.72" cy="455.11" r="54.43"/><circle class="cls-108" cx="4486.62" cy="457.53" r="54.43"/><circle class="cls-109" cx="4491.6" cy="459.85" r="54.43"/><circle class="cls-110" cx="4496.66" cy="462.07" r="54.43"/><circle class="cls-110" cx="4501.82" cy="464.19" r="54.43"/><circle class="cls-111" cx="4507.05" cy="466.21" r="54.43"/><circle class="cls-111" cx="4512.36" cy="468.13" r="54.43"/><circle class="cls-112" cx="4517.75" cy="469.94" r="54.43"/><circle class="cls-113" cx="4523.22" cy="471.65" r="54.43"/><circle class="cls-113" cx="4528.77" cy="473.24" r="54.43"/><circle class="cls-113" cx="4534.38" cy="474.73" r="54.43"/><circle class="cls-114" cx="4540.07" cy="476.11" r="54.43"/><circle class="cls-114" cx="4545.82" cy="477.38" r="54.43"/><circle class="cls-114" cx="4551.65" cy="478.53" r="54.43"/><circle class="cls-115" cx="4557.53" cy="479.56" r="54.43"/><circle class="cls-115" cx="4563.48" cy="480.48" r="54.43"/><circle class="cls-116" cx="4569.49" cy="481.28" r="54.43"/><circle class="cls-117" cx="4575.56" cy="481.95" r="54.43"/><circle class="cls-117" cx="4581.69" cy="482.51" r="54.43"/><circle class="cls-118" cx="4587.87" cy="482.93" r="54.43"/><circle class="cls-119" cx="4594.11" cy="483.24" r="54.43"/><circle class="cls-119" cx="4600.39" cy="483.41" r="54.43"/><circle class="cls-119" cx="4606.73" cy="483.46" r="54.43"/><circle class="cls-120" cx="4613.11" cy="483.37" r="54.43"/><circle class="cls-120" cx="4619.54" cy="483.15" r="54.43"/><circle class="cls-120" cx="4626.01" cy="482.8" r="54.43"/><circle class="cls-121" cx="4632.52" cy="482.31" r="54.43"/><circle class="cls-121" cx="4639.08" cy="481.68" r="54.43"/><circle class="cls-122" cx="4645.67" cy="480.91" r="54.43"/><circle class="cls-123" cx="4652.29" cy="480" r="54.43"/><circle class="cls-123" cx="4658.95" cy="478.95" r="54.43"/><circle class="cls-124" cx="4665.64" cy="477.76" r="54.43"/><circle class="cls-124" cx="4672.36" cy="476.41" r="54.43"/><circle class="cls-124" cx="4679.11" cy="474.92" r="54.43"/><circle class="cls-125" cx="4685.89" cy="473.28" r="54.43"/><circle class="cls-125" cx="4692.69" cy="471.49" r="54.43"/><circle class="cls-125" cx="4699.51" cy="469.55" r="54.43"/><circle class="cls-126" cx="4706.35" cy="467.45" r="54.43"/><circle class="cls-126" cx="4713.21" cy="465.19" r="54.43"/><circle class="cls-126" cx="4720.08" cy="462.78" r="54.44"/><circle class="cls-127" cx="4726.97" cy="460.21" r="54.44"/><circle class="cls-128" cx="4733.88" cy="457.47" r="54.44"/><circle class="cls-129" cx="4740.79" cy="454.58" r="54.44"/><circle class="cls-130" cx="4747.71" cy="451.51" r="54.44"/><circle class="cls-130" cx="4754.64" cy="448.29" r="54.44"/><circle class="cls-130" cx="4761.57" cy="444.89" r="54.44"/><circle class="cls-131" cx="4768.5" cy="441.32" r="54.44"/><circle class="cls-131" cx="4775.44" cy="437.59" r="54.44"/><circle class="cls-131" cx="4782.37" cy="433.68" r="54.44"/><circle class="cls-132" cx="4789.3" cy="429.59" r="54.44"/><circle class="cls-132" cx="4796.23" cy="425.33" r="54.44"/><circle class="cls-132" cx="4803.15" cy="420.89" r="54.44"/><path class="cls-133" d="M4863.87,424.56a54,54,0,0,1-4.09,13.9q-1.11,2.46-2.47,4.85c-.86,1.5-1.79,3-2.81,4.4-.51.73-1.05,1.44-1.6,2.15s-1,1.23-1.49,1.82q-1.6,1.88-3.34,3.57c-1.15,1.12-2.34,2.19-3.57,3.19a52.71,52.71,0,0,1-7.76,5.3c-1.35.76-2.73,1.45-4.13,2.09s-2.85,1.22-4.3,1.74-3,1-4.46,1.37-3.07.73-4.62,1-3.18.47-4.78.6-3.29.19-4.94.17-3.42-.11-5.13-.29a54.2,54.2,0,0,1-10.87-2.27,53.53,53.53,0,0,1-5.86-2.25,54.43,54.43,0,0,1-6.29-3.36,55,55,0,0,1-4.88-3.42c-.77-.6-1.51-1.22-2.24-1.84a54.35,54.35,0,0,1-18.34-35.51,55.43,55.43,0,0,1-.23-7.84,51.93,51.93,0,0,1,.6-6.08q.4-2.6,1.06-5.14c.39-1.52.84-3,1.37-4.51s1-2.72,1.61-4.05,1.16-2.48,1.81-3.69,1.29-2.28,2-3.4,1.4-2.11,2.16-3.13c.3-.42.62-.83.94-1.23.45-.58.9-1.14,1.37-1.69.8-.94,1.62-1.84,2.46-2.71s1.73-1.72,2.62-2.52,1.83-1.59,2.78-2.34a53.21,53.21,0,0,1,6.07-4.13c1.08-.64,2.19-1.24,3.31-1.79s2.34-1.11,3.53-1.6,2.49-1,3.76-1.38,2.68-.82,4-1.15,2.88-.64,4.34-.87,3.14-.43,4.72-.54A54.2,54.2,0,0,1,4843,372.92Z"/><path class="cls-134" d="M4867.13,432.62a50,50,0,0,1-2.31,4.78,52.8,52.8,0,0,1-2.74,4.52c-.53.78-1.08,1.56-1.66,2.33-.45.6-.91,1.18-1.38,1.75q-1.57,1.94-3.3,3.68c-1.13,1.16-2.31,2.25-3.53,3.29a52.92,52.92,0,0,1-7.71,5.47q-2,1.2-4.15,2.2h0c-1.42.67-2.85,1.28-4.31,1.82h0c-1.48.56-3,1-4.49,1.46h0q-2.29.65-4.65,1.08h0c-1.59.29-3.2.52-4.81.67s-3.33.24-5,.24-3.47-.07-5.2-.23-3.61-.42-5.41-.77a53.89,53.89,0,0,1-5.66-1.43,53,53,0,0,1-6-2.26,54.19,54.19,0,0,1-6.51-3.45q-2.12-1.31-4.13-2.83c-1.17-.88-2.28-1.8-3.35-2.74a54.23,54.23,0,0,1-17.71-32.71h0a52.59,52.59,0,0,1-.6-8.32,54.11,54.11,0,0,1,1.32-11.65c.35-1.56.77-3.12,1.27-4.65s1-2.8,1.52-4.18h0c.53-1.28,1.12-2.55,1.75-3.8s1.24-2.35,1.94-3.49,1.36-2.18,2.12-3.24c.34-.49.69-1,1.06-1.46s.8-1.05,1.21-1.55c.79-1,1.6-1.91,2.44-2.81h0c.84-.9,1.71-1.77,2.6-2.61s1.82-1.65,2.77-2.42a52.47,52.47,0,0,1,6.06-4.3c1.09-.67,2.21-1.29,3.33-1.88s2.36-1.16,3.56-1.68,2.52-1,3.8-1.46,2.71-.87,4.08-1.22,2.93-.69,4.41-.95a54.44,54.44,0,0,1,30.55,3.57l4.66,11.53,20.9,51.64,3.19,7.89Z"/><path class="cls-135" d="M4868.91,437c-.32.48-.66,1-1,1.44s-.82,1.12-1.25,1.66q-1.56,2-3.26,3.79t-3.5,3.39a54.1,54.1,0,0,1-7.68,5.67q-2,1.23-4.14,2.28c-1.42.71-2.86,1.34-4.33,1.92h0c-1.47.58-3,1.09-4.5,1.54h0c-1.54.45-3.1.84-4.67,1.15s-3.24.58-4.87.75-3.37.29-5.06.32h0c-1.75,0-3.51,0-5.26-.18a54.14,54.14,0,0,1-5.5-.73,53.47,53.47,0,0,1-5.78-1.41,52.53,52.53,0,0,1-6.16-2.28,53.66,53.66,0,0,1-6.74-3.55c-1.12-.69-2.23-1.44-3.32-2.23a54.31,54.31,0,0,1-21.41-33.39h0a55.5,55.5,0,0,1-.85-15.48c.17-1.84.42-3.68.77-5.5h0c.31-1.61.7-3.21,1.16-4.8s.89-2.88,1.43-4.3,1.07-2.62,1.68-3.91,1.21-2.42,1.89-3.6,1.33-2.25,2.06-3.34c.38-.57.78-1.14,1.18-1.7s.7-.95,1.06-1.41c.78-1,1.58-2,2.41-2.89s1.69-1.84,2.58-2.7,1.81-1.71,2.75-2.51a53.51,53.51,0,0,1,6.08-4.49c1.1-.69,2.21-1.35,3.35-1.95s2.37-1.22,3.58-1.77,2.54-1.07,3.84-1.54,2.74-.92,4.13-1.29a54.49,54.49,0,0,1,25.43-.77l3.32,8.19,4.66,11.53,20.9,51.64,3.19,7.89.07.17,1.48,3.66Z"/><path class="cls-136" d="M4869.8,439.22c-.73.76-1.49,1.5-2.26,2.21a54.93,54.93,0,0,1-7.65,5.87c-1.35.86-2.74,1.65-4.15,2.38s-2.86,1.4-4.33,2-3,1.15-4.53,1.63-3.12.89-4.7,1.23-3.27.63-4.92.82-3.4.34-5.11.39-3.56,0-5.34-.12a54.12,54.12,0,0,1-11.5-2.08,54,54,0,0,1-13.31-6c-.82-.51-1.64-1-2.44-1.61a54.44,54.44,0,0,1-22.6-53.29c.26-1.66.61-3.31,1-4.95s.83-3,1.34-4.42,1-2.71,1.61-4,1.16-2.48,1.82-3.7h0c.62-1.16,1.3-2.3,2-3.43h0c.41-.65.85-1.3,1.29-1.94.3-.43.6-.85.91-1.26.76-1,1.56-2,2.38-3s1.67-1.89,2.55-2.79,1.81-1.77,2.75-2.61a54.68,54.68,0,0,1,6.06-4.64c1.11-.73,2.23-1.41,3.38-2.05s2.39-1.28,3.61-1.85,2.56-1.13,3.87-1.62a54.55,54.55,0,0,1,20.87-3.44l2.54,6.28,3.32,8.19,4.66,11.53,20.9,51.64,3.19,7.89.07.17,1.48,3.66.3.74.68,1.68Z"/><path class="cls-136" d="M4870,439.71c-.81.6-1.63,1.17-2.46,1.72-1.35.89-2.74,1.71-4.15,2.48s-2.87,1.46-4.35,2.09-3,1.21-4.54,1.71-3.14,1-4.74,1.32h0q-2.46.56-4.95.9h0c-1.72.23-3.45.38-5.18.44s-3.61.05-5.41-.06a52.16,52.16,0,0,1-5.69-.65,51.1,51.1,0,0,1-6-1.37A53.16,53.16,0,0,1,4816,446a54.19,54.19,0,0,1-7.26-3.82c-.51-.31-1-.64-1.5-1a54.33,54.33,0,0,1-21.52-28.63,55.22,55.22,0,0,1-2.58-17.64h0a55.57,55.57,0,0,1,.44-5.89c.22-1.7.52-3.41.9-5.1.35-1.53.76-3,1.25-4.56s.95-2.77,1.52-4.14,1.12-2.56,1.76-3.82,1.26-2.38,2-3.54c.45-.74.92-1.48,1.41-2.2.24-.38.5-.74.75-1.1.75-1.07,1.54-2.09,2.35-3.09s1.66-2,2.54-2.88,1.78-1.83,2.71-2.69a55.21,55.21,0,0,1,6.1-4.85c1.1-.75,2.23-1.46,3.38-2.13s2.39-1.33,3.62-1.92a54.75,54.75,0,0,1,16.64-5l2,4.92,2.54,6.28,3.32,8.19,4.66,11.53,20.9,51.64,3.19,7.89.07.17,1.48,3.66.3.74.68,1.68.21.52Z"/><path class="cls-136" d="M4869.59,438.7c-1,.5-1.95,1-2.94,1.42q-2.25,1-4.57,1.8t-4.77,1.39c-1.65.41-3.31.73-5,1h0c-1.73.25-3.48.43-5.23.51a50.45,50.45,0,0,1-5.5,0,54.14,54.14,0,0,1-5.79-.61,55.25,55.25,0,0,1-6.17-1.35,54.93,54.93,0,0,1-14.27-6.38l-.46-.29a54.33,54.33,0,0,1-21.11-25.71h0a54.69,54.69,0,0,1-3.81-19.18,51.68,51.68,0,0,1,.24-6.09,52.69,52.69,0,0,1,.77-5.27c.31-1.57.68-3.14,1.14-4.69s.89-2.85,1.43-4.27,1.07-2.63,1.69-3.92h0c.59-1.23,1.22-2.45,1.92-3.65.47-.83,1-1.66,1.5-2.47l.61-.93c.74-1.1,1.51-2.16,2.32-3.19s1.64-2,2.51-3,1.79-1.91,2.72-2.8a52.32,52.32,0,0,1,6.07-5q1.65-1.18,3.39-2.22a54.08,54.08,0,0,1,12.66-5.57l1.52,3.76,2,4.92,2.54,6.28,3.32,8.19,4.66,11.53,20.9,51.64,3.19,7.89.07.17,1.48,3.66.3.74Z"/><path class="cls-137" d="M4868.61,436.28c-1.25.42-2.51.8-3.79,1.12a50.67,50.67,0,0,1-5,1.06c-1.75.28-3.52.47-5.29.58a54.64,54.64,0,0,1-5.58,0,53.29,53.29,0,0,1-5.9-.57,54.42,54.42,0,0,1-13.21-3.77,54.7,54.7,0,0,1-7.27-3.79l-.66-.42a53.84,53.84,0,0,1-11.54-9.88h0a54.69,54.69,0,0,1-13.48-33.13,55.71,55.71,0,0,1,0-6.33,52.3,52.3,0,0,1,.63-5.42c.26-1.62.6-3.23,1-4.84s.84-2.93,1.35-4.38,1-2.71,1.62-4,1.18-2.52,1.85-3.75c.51-.93,1-1.85,1.6-2.76l.48-.75c.72-1.13,1.48-2.22,2.28-3.28s1.62-2.09,2.49-3.08,1.76-1.95,2.69-2.87a53.77,53.77,0,0,1,6-5.18,54.39,54.39,0,0,1,8.9-5.32l1.1,2.71,1.52,3.76,2,4.92,2.54,6.28,3.32,8.19,4.66,11.53,20.9,51.64,3.19,7.89.07.17Z"/><path class="cls-137" d="M4867.06,432.45a50.39,50.39,0,0,1-5.21.63,56.21,56.21,0,0,1-5.66.11,53,53,0,0,1-6-.53,53.85,53.85,0,0,1-6.47-1.34,55.72,55.72,0,0,1-7.12-2.49,53.55,53.55,0,0,1-6.44-3.29c-.65-.38-1.28-.77-1.9-1.18a54.37,54.37,0,0,1-24.46-40.74,53.19,53.19,0,0,1-.2-6.56,55.37,55.37,0,0,1,.46-5.6c.23-1.67.53-3.32.91-5s.77-3,1.26-4.51,1-2.78,1.54-4.16,1.14-2.58,1.8-3.85c.52-1,1.08-2.05,1.68-3.05l.34-.56c.71-1.16,1.46-2.29,2.24-3.38s1.6-2.15,2.46-3.17,1.74-2,2.66-3a54.19,54.19,0,0,1,8.24-7l.66,1.63,1.1,2.71,1.52,3.76,2,4.92,2.54,6.28,3.32,8.19,4.66,11.53,20.9,51.64Z"/><path class="cls-1" d="M4070.36,473.8c-30.49,81-60.78,160-90.09,239.48-28.92,78.12-56.93,156.57-88.86,237.64-.72,1.9-1.44,3.86-2.22,5.76-.46-1.18-.85-2.29-1.31-3.47-63.79-167.9-188.24-495.77-188.24-495.77l-89.58,40.31s198.58,514.74,225,581.67c4.45,11.19,5.69,21.4,1.57,32.46-9.48,25.71-15,114.67-109.53,168.67-13.42,7.67-59.05,26.1-59.05,26.1l34.45,77.35s39.06-12.82,57.38-20.35c62-25.65,107.44-67.78,133.35-129.75,9.62-23,279.19-760.1,279.19-760.1Z"/><path class="cls-1" d="M407.52,473.41c-62.62-19.11-125.1-17-188.37-.79C147,491.08,90.84,530.59,51.38,592.88,25,634.76,10.75,681,4.21,730.48-4.3,794.87-.5,857.55,21,918.66c24.54,69.55,69.62,121.7,136,155.53,62.16,31.67,129.42,39.85,197.53,42.79,31.8,1.37,63.67-2.62,95.07-8.9,54.05-10.86,102.34-33.83,147.81-69.29-16-39.58-31.93-78.91-48.48-119.8-8.51,4-15.32,7.33-22.19,10.66-25.45,12.44-50.7,25.52-78.32,32.78-45.67,12-91.53,13-138.45,6.22-57.51-8.18-96.9-37.82-119.67-90.23-5.23-12-11.71-24.67-6.74-40.37h416c2.75-96.57-.46-133-25.91-204C544.86,553.76,490.22,498.66,407.52,473.41ZM183.88,726.89c-4.32-53.13,49.66-122,122.62-124.19,74.39-2.23,129.22,58.82,130.79,124.19Z"/><path class="cls-1" d="M2152.74,847.15c-47-130.14-94.16-260.29-142-392.72-56.07,16.23-110,31.87-165.28,47.9q108.94,280.7,215.46,555.3c-9.16,22.38-17.6,42.08-25.25,62-13.22,34.22-34.94,60.46-67.13,79-31.28,18-63.73,33.57-99.33,49.73,15.58,47.17,38.08,91,56.6,135.57,31.34-2.94,93.7-30.29,130.8-52.67,64.25-38.74,111.49-91.41,138.71-161.74,32.06-83.1,64.84-165.94,97.69-248.64,52.27-131.32,105.14-262.37,157-393.89,6-15.18,14.85-30,16.36-47.89H2291.65C2246.37,601.85,2202.92,725.05,2152.74,847.15Z"/><path class="cls-1" d="M1059.66,516.46c-62.88-45.41-134.33-62.61-212.12-53.78-48.94,5.56-96.45,16.62-143.1,31.73-17.14,5.56-34,11.71-49.4,25.13,14.92,45.27,29.9,90.55,45,136.22,47.64-18.71,94-33,143.3-38.14,24.27-2.55,47.76-4.52,71.58,1.5,41.74,10.54,68,48.29,63.79,94.35h-17.4c-30.36,0-60.79-.32-91.21.07-47.7.52-94.75,6-138.52,26.1-45.41,20.88-80.61,52.35-96.9,101.55-12.11,36.51-15.44,73-9.36,111.43,11.32,72,49.79,121.5,117.58,147.54,29.77,11.45,61.7,15.84,93.43,16.89,53,1.76,99.52-16.75,140.61-49.6,12-9.62,23.75-19.43,35.6-29.12,15.18,19.89,17.66,44.3,31.34,62h108.35v-28.79c0-125.56-.46-251.12.13-376.68C1152.7,618.86,1119.73,559.78,1059.66,516.46ZM984.68,920c-38.21,40.11-84.67,64-142.57,63.4-29.18-.33-50.91-14-67.33-36.9-11.52-16.1-10.47-34.94-6.87-52.41,7.52-36.51,41.61-65.1,79.5-66.35,45-1.37,89.9-.32,137.27-.32Z"/><path class="cls-1" d="M2919.65,505.4c-91.8-53.45-186.81-61.5-283.58-12-15.18,7.78-30.16,16.16-45.28,24.27-11.45-11.38-13.93-26.89-23.68-38.34H2509.2v900.58c35.2-6.87,66.41-20.29,99.46-30.23V1072.42c15.18,7.4,29.05,14.27,43.05,20.81,36.44,17,101.41,27.73,145.65,20.41,79.15-13.1,141.78-46.19,190.2-107.63,37.69-47.89,56.86-104.43,62.36-164,6.47-69.82,2.94-139.57-25.06-205.78C3002.22,582.68,2970.81,535.18,2919.65,505.4Zm11.18,396.9c-16.29,41.36-37.62,79.3-77.4,103.51a166.23,166.23,0,0,1-83.1,24.67c-33.82,1-66.74-1.9-99-14.72-23.88-9.49-43.12-24.28-63-39V605.58c29.38-27.68,62.42-48.62,104.63-54.77,28.52-4.12,56.2-5.1,84.73,0,52.41,9.36,89.51,38.67,115,83.62,22,38.74,32.85,80.81,34.48,125.3C2949,808.08,2948.89,856.37,2930.83,902.3Z"/><path class="cls-1" d="M3587.75,689.72c0-9.49.07-19-.65-28.53-5.11-66.74-34.29-120.13-90.56-157.36-55.29-36.57-116.4-47.37-182-41.35a549.46,549.46,0,0,0-140.21,32.19c-12.76,4.71-26.11,8.9-35.73,20,.26,13.48,6.74,24.86,11.25,36.77,4.72,12.56,9.62,25.06,14.07,36.64,4,.2,5.89.79,7.39.33,4.85-1.57,9.69-3.4,14.4-5.43,58-24.93,118.3-36.25,181.63-31.8,48.29,3.4,83.17,25.12,101.81,70.66,14.59,35.79,16,72.89,13.81,112-58.1,0-114.44.52-170.77-.2-38.61-.46-75.9,6.61-110.52,22.38-48.28,21.92-83.42,57-98.53,109.72-7.33,25.52-6.81,51.3-5.43,77,3.66,66.87,34,117.78,93.89,149.9,31,16.62,64.71,23.3,99.26,25.19,56.92,3.15,108.48-14.13,156.83-43.24,16.95-10.15,32-22.84,48.94-35.53,7.53,21.92,6.68,44,16.69,63.07,24.27-1.37,47.63,1.7,71.77-2.22,4.26-10.93,2.56-19.63,2.56-28.2Q3587.89,880.64,3587.75,689.72ZM3483.06,944.11c-33.76,37.43-73.08,67.72-122.48,82.58-28.2,8.44-56.6,11.25-86.56,4.84-46.72-9.95-72.57-39.72-80.94-83-9.62-49.86,4.25-94.09,47.3-125.5,20.09-14.65,43.71-20.94,68-21.33,57.31-1,114.7-.33,174.69-.33Z"/><path class="cls-1" d="M1648.6,1101.93c55.29-1,109.46,1.44,164.23-1.57V193c-55.75,16.48-109.86,32.58-164.23,48.68Z"/><path class="cls-1" d="M1368,578.82c-21.66-31.61-35.33-66.15-54.83-99h-86.3l1.57,620.48h164.1V720.8c30-28.85,63.79-49.6,98.08-69.62a338.09,338.09,0,0,1,122.48-42.92C1603,563.7,1592.85,521,1580,477.07,1494.51,483,1432,531.58,1368,578.82Z"/></svg>